# xmcd
#
# Track frame offsets: 
#        150
#        13366
#        27725
#        40629
#        55408
#        66950
#        83984
#        95827
#        107038
#        117213
#        130943
#        141824
#        152611
#        165072
#        178091
#        194380
#
# Disc length: 2756 seconds
#
# Revision: 2
# Processed by: cddbd v1.5.2PL0 Copyright (c) Steve Scherf et al.
# Submitted via: ExactAudioCopy v0.95b4
#
DISCID=dd0ac210
DTITLE=Various Artist - Kuschelnacht CD 4
DYEAR=1900
DGENRE=
TTITLE0=Me and you and a dog named Boo (Lobo)
TTITLE1=Somewhere in the country (Gene Pitney)
TTITLE2=Ruby don't take your love to town (Kenny Rogers)
TTITLE3=Let's hang on (Four Seasons)
TTITLE4=A lovers concarto (The Toys)
TTITLE5=Blue Bayou (Lynn Anderson)
TTITLE6=Put your head on my shoulder (Paul Anka)
TTITLE7=Lonely people (America)
TTITLE8=Love letters in the sand (Pat Boone)
TTITLE9=Monday Monday (Neil Diamond)
TTITLE10=Blueberry Hill (Fats Domino)
TTITLE11=All I have to do is dream (Everly Brothers)
TTITLE12=The girl from Ipanerna (Astrud Gilberto)
TTITLE13=This old heart of mine (Isley Brothers)
TTITLE14=Unchained Melody (Righteous Brothers)
TTITLE15=The Wanderer (Dion)
EXTD=
EXTT0=
EXTT1=
EXTT2=
EXTT3=
EXTT4=
EXTT5=
EXTT6=
EXTT7=
EXTT8=
EXTT9=
EXTT10=
EXTT11=
EXTT12=
EXTT13=
EXTT14=
EXTT15=
PLAYORDER=
